# xmcd CD database file
#
# Track frame offsets:
#	150
#	4890
#	20445
#	40725
#	49180
#	53595
#	60252
#	68017
#	74917
#	81265
#	88170
#	93660
#	100415
#	112977
#	121505
#	126220
#	133295
#	135070
#	141447
#	146712
#	153447
#	159385
#	165442
#	173162
#	176782
#	179832
#	182017
#	193415
#	204672
#	213727
#
# Disc length: 2882 seconds
#
# Revision: 3
# Processed by: cddbd v1.5.1PL0 Copyright (c) Steve Scherf et al.
# Submitted via: CDex 1.51
#
DISCID=bc0b401e
DTITLE=光宗信吉 - 遊戯王デュエルモンスターズ　決闘II
DYEAR=2001
DGENRE=Anime
TTITLE0=PRELUDEII
TTITLE1=CLOUD/オープニングテーマ”voice”
TTITLE2=前田亜季/エンディングテーマ”元気のシャワー”
TTITLE3=伝説の決闘
TTITLE4=激突
TTITLE5=心理戦
TTITLE6=勝利への道
TTITLE7=楽しい仲間たち
TTITLE8=喝采
TTITLE9=うごめく影
TTITLE10=勇者の足跡
TTITLE11=戦いの果てに
TTITLE12=融和
TTITLE13=Chaser
TTITLE14=天かける竜
TTITLE15=強大な力
TTITLE16=未知なる敵
TTITLE17=Labyrinth(迷宮伝説)
TTITLE18=珍敵来襲
TTITLE19=悪戯
TTITLE20=Chat! Chat!
TTITLE21=乱舞乱闘
TTITLE22=Friendship
TTITLE23=絶体絶命
TTITLE24=奈落
TTITLE25=大団円
TTITLE26=秘めた想い〜Ambient Mix〜
TTITLE27=秘めた想い〜Pf Solo〜
TTITLE28=決闘のテーマ〜Yu-Gi“Courageous”Mix〜
TTITLE29=Peace and Hope
EXTD=YEAR: 2001
EXTT0=
EXTT1=
EXTT2=
EXTT3=
EXTT4=
EXTT5=
EXTT6=
EXTT7=
EXTT8=
EXTT9=
EXTT10=
EXTT11=
EXTT12=
EXTT13=
EXTT14=
EXTT15=
EXTT16=
EXTT17=
EXTT18=
EXTT19=
EXTT20=
EXTT21=
EXTT22=
EXTT23=
EXTT24=
EXTT25=
EXTT26=
EXTT27=
EXTT28=
EXTT29=
PLAYORDER=
